<?xml version="1.0" encoding="UTF-8" standalone="no"?>
<!-- Created with Inkscape (http://www.inkscape.org/) -->

<svg
   width="212.02068mm"
   height="208.80812mm"
   viewBox="0 0 212.02069 208.80812"
   version="1.1"
   id="svg1"
   xmlns:inkscape="http://www.inkscape.org/namespaces/inkscape"
   xmlns:sodipodi="http://sodipodi.sourceforge.net/DTD/sodipodi-0.dtd"
   xmlns="http://www.w3.org/2000/svg"
   xmlns:svg="http://www.w3.org/2000/svg">
  <sodipodi:namedview
     id="namedview1"
     pagecolor="#ffffff"
     bordercolor="#000000"
     borderopacity="0.25"
     inkscape:showpageshadow="2"
     inkscape:pageopacity="0.0"
     inkscape:pagecheckerboard="0"
     inkscape:deskcolor="#d1d1d1"
     inkscape:document-units="mm" />
  <defs
     id="defs1">
    <clipPath
       id="id17">
    <path
   d="m 21592.62,44273.81 c 3530.03,0 6391.69,2861.66 6391.69,6391.69 0,3530.03 -2861.66,6391.69 -6391.69,6391.69 -3530.03,0 -6391.69,-2861.66 -6391.69,-6391.69 0,-3530.03 2861.66,-6391.69 6391.69,-6391.69 z"
   id="path17" />

   </clipPath>
  </defs>
  <g
     inkscape:label="Layer 1"
     inkscape:groupmode="layer"
     id="layer1"
     transform="translate(0,-38.498615)">
    <g
       id="g1"
       transform="matrix(1.4020971,0,0,1.4020971,-14.963162,-44.525724)">
      <path
         class="fil5"
         d="m 86.21826,59.26686 c 41.0156,0 74.2654,33.2498 74.2654,74.2654 0,41.0157 -33.2498,74.2655 -74.2654,74.2655 -41.0156,0 -74.2654,-33.2498 -74.2654,-74.2655 0,-41.0156 33.2498,-74.2654 74.2654,-74.2654 z"
         id="path293"
         style="clip-rule:evenodd;fill:#ffffff;fill-rule:evenodd;stroke-width:0.01;image-rendering:optimizeQuality;shape-rendering:geometricPrecision;text-rendering:geometricPrecision" />
      <path
         class="fil18"
         d="m 86.21816,69.61536 c 35.3003,0 63.9169,28.6166 63.9169,63.9169 0,35.3003 -28.6166,63.9169 -63.9169,63.9169 -35.3003,0 -63.9169,-28.6166 -63.9169,-63.9169 0,-35.3003 28.6166,-63.9169 63.9169,-63.9169 z"
         id="path294"
         style="clip-rule:evenodd;fill:#0c6e5a;fill-rule:evenodd;stroke-width:0.01;image-rendering:optimizeQuality;shape-rendering:geometricPrecision;text-rendering:geometricPrecision" />
      <g
         style="clip-rule:evenodd;fill-rule:evenodd;image-rendering:optimizeQuality;shape-rendering:geometricPrecision;text-rendering:geometricPrecision"
         clip-path="url(#id17)"
         id="g314"
         transform="matrix(0.01,0,0,0.01,-129.70804,-373.12274)">
   <g
   id="_1774100280512">
    <path
   id="1"
   class="fil19"
   d="m 15470.71,46729.01 c 430.63,-32.79 861.24,-40.59 1293.45,-28.1 1371.36,40.59 2758.33,287.31 4202.99,627.69 1691.29,399.74 2577.38,24.97 3564.96,-391.94 655.32,-276.35 1352.75,-571.48 2352.79,-677.63 14.01,24.97 26.49,48.41 40.5,73.36 -1009.39,101.49 -1708.34,396.62 -2363.65,672.97 -1000.08,423.21 -1897.13,801.05 -3611.78,396.63 -1441.52,-338.78 -2822.28,-585.61 -4187.39,-626.08 -443.12,-12.49 -884.63,-3.17 -1326.13,31.15 10.9,-26.49 21.83,-53.08 34.26,-78.05 z"
   style="fill:#0b755f;fill-rule:nonzero" />

    <path
   class="fil19"
   d="m 13437.99,45531.58 c 636.52,-82.82 1271.53,-109.29 1909.64,-90.62 1372.9,40.68 2758.33,287.28 4203.04,627.67 1691.2,399.76 2577.38,25.08 3566.49,-391.83 720.76,-304.57 1496.24,-632.38 2669.44,-704.22 7.82,24.95 15.65,49.92 21.83,74.89 -1173.19,68.7 -1943.9,395.1 -2663.16,698.03 -1000.04,421.6 -1897.1,801.03 -3611.74,396.63 -1441.61,-338.86 -2822.32,-585.58 -4187.49,-626.17 -642.8,-18.79 -1282.43,9.32 -1923.67,93.64 4.66,-26.5 9.35,-51.55 15.62,-78.02 z"
   id="path295"
   style="fill:#0b755f;fill-rule:nonzero" />

    <path
   class="fil19"
   d="m 13542.22,44826.76 c 666.21,-92.11 1330.84,-121.77 2000.14,-101.46 1374.52,40.59 2763.08,287.28 4209.29,629.22 1680.35,395.07 2561.76,23.47 3543.16,-391.85 552.29,-232.71 1137.38,-479.4 1906.44,-615.21 -21.8,56.21 -45.16,112.45 -68.61,167.05 -711.41,135.88 -1259.04,366.97 -1780.1,587.11 -1004.73,424.7 -1908.05,805.68 -3635.18,399.73 -1438.5,-338.83 -2817.66,-585.58 -4179.66,-626.17 -642.8,-18.67 -1280.91,9.35 -1922.13,93.67 -24.97,-46.78 -48.36,-93.67 -73.35,-142.09 z"
   id="path296"
   style="fill:#0b755f;fill-rule:nonzero" />

    <path
   class="fil19"
   d="m 13020.82,44079.34 c 694.3,-101.5 1385.43,-134.26 2081.27,-113.98 1376.08,39.06 2764.58,287.31 4210.82,629.3 1678.71,395.02 2560.26,23.36 3543.16,-391.91 736.41,-310.75 1528.92,-644.9 2742.71,-708.9 10.96,49.91 20.31,99.85 29.63,149.88 -1202.83,59.26 -1986.02,390.33 -2714.61,697.92 -1006.34,424.76 -1909.69,805.74 -3635.18,399.79 -1438.45,-340.39 -2817.63,-587.13 -4179.66,-626.17 -700.51,-20.31 -1394.75,14.1 -2093.73,117.09 4.69,-49.92 9.35,-101.47 15.59,-153.02 z"
   id="path297"
   style="fill:#0b755f;fill-rule:nonzero" />

    <path
   class="fil19"
   d="m 14528.93,46124.74 c 542.92,-56.24 1087.45,-73.38 1631.94,-57.76 1376.05,40.62 2764.61,288.86 4210.87,629.33 1678.72,396.52 2560.15,23.36 3543.08,-390.41 698.92,-295.14 1447.82,-612.08 2558.71,-697.95 21.8,48.42 42.11,98.36 60.78,146.78 -1118.59,79.66 -1865.97,394.99 -2561.76,690.09 -1006.25,424.74 -1909.61,805.71 -3635.21,398.24 -1438.39,-338.86 -2817.6,-585.58 -4179.6,-624.65 -561.67,-17.14 -1118.63,1.61 -1677.16,64.13 15.56,-53.17 31.18,-106.24 48.35,-157.8 z"
   id="path298"
   style="fill:#0b755f;fill-rule:nonzero" />

    <path
   class="fil19"
   d="m 16082.99,47456.22 c 297.98,-12.49 597.55,-13.99 897.08,-4.66 1376.07,40.59 2763.05,287.3 4210.87,629.33 1678.72,394.99 2560.24,23.45 3541.52,-391.94 212.23,-89.01 427.58,-179.54 655.31,-265.5 71.75,-6.19 143.5,-14.01 216.89,-23.33 49.94,20.28 101.38,37.43 152.84,53.07 -349.42,113.96 -663.02,246.61 -965.78,374.68 -1006.22,424.74 -1909.58,805.72 -3635.1,399.77 -1440.02,-338.86 -2819.23,-585.58 -4181.24,-626.17 -326.06,-9.35 -653.7,-6.22 -979.79,9.43 28.11,-51.55 57.74,-103.13 87.4,-154.68 z"
   id="path299"
   style="fill:#0b755f;fill-rule:nonzero" />

    <path
   class="fil19"
   d="m 15530.7,48694.49 c 542.91,-56.24 1087.44,-73.39 1631.93,-57.77 1376.05,40.62 2764.61,288.86 4210.88,629.34 1678.71,396.51 2560.14,23.36 3543.07,-390.42 698.92,-295.13 1447.82,-612.07 2558.71,-697.94 21.8,48.41 42.11,98.35 60.78,146.77 -1118.59,79.66 -1865.96,394.99 -2561.75,690.09 -1006.26,424.74 -1909.61,805.72 -3635.22,398.24 -1438.39,-338.86 -2817.6,-585.57 -4179.6,-624.64 -561.67,-17.15 -1118.63,1.61 -1677.16,64.12 15.56,-53.16 31.18,-106.24 48.36,-157.79 z"
   id="path300"
   style="fill:#0b755f;fill-rule:nonzero" />

    <path
   class="fil19"
   d="m 15263.9,49937.42 c 694.29,-101.49 1385.42,-134.26 2081.27,-113.98 1376.07,39.07 2764.57,287.31 4210.81,629.31 1678.72,395.02 2560.27,23.36 3543.16,-391.91 736.41,-310.76 1528.92,-644.9 2742.71,-708.91 10.96,49.91 20.31,99.86 29.63,149.88 -1202.83,59.27 -1986.01,390.33 -2714.6,697.92 -1006.34,424.77 -1909.7,805.74 -3635.19,399.79 -1438.44,-340.38 -2817.62,-587.13 -4179.66,-626.17 -700.5,-20.31 -1394.74,14.1 -2093.72,117.09 4.69,-49.91 9.35,-101.46 15.59,-153.02 z"
   id="path301"
   style="fill:#0b755f;fill-rule:nonzero" />

    <path
   class="fil19"
   d="m 15246.72,51153.86 c 761.39,-124.97 1519.6,-167.06 2280.96,-145.28 1376.07,40.62 2764.6,288.86 4210.9,629.36 1678.71,396.6 2560.23,23.36 3543.15,-390.41 733.25,-310.76 1522.62,-643.35 2725.57,-708.91 0,49.94 1.49,101.5 0,151.44 -1176.36,65.65 -1948.68,391.91 -2667.94,694.87 -1006.26,424.7 -1908.06,807.35 -3635.11,399.76 -1438.5,-338.86 -2817.65,-585.55 -4179.68,-626.17 -756.66,-21.83 -1508.67,20.28 -2263.78,145.22 -4.66,-49.94 -9.38,-99.97 -14.07,-149.88 z"
   id="path302"
   style="fill:#0b755f;fill-rule:nonzero" />

    <path
   class="fil19"
   d="m 15455.81,52334.37 c 752.01,-121.89 1502.43,-162.49 2255.98,-139.07 1374.46,39.1 2763.05,287.34 4209.35,627.72 1680.24,396.63 2560.15,24.98 3543.04,-390.32 675.63,-285.82 1397.91,-590.27 2446.4,-688.6 -9.35,53.11 -18.79,104.63 -29.66,156.1 -1006.34,99.97 -1705.3,395.07 -2358.97,671.42 -1006.26,424.76 -1908.09,805.74 -3635.22,398.24 -1438.41,-338.83 -2817.59,-585.58 -4179.63,-624.62 -737.93,-21.86 -1472.76,17.23 -2209.2,135.85 -14.01,-48.39 -28.05,-96.81 -42.09,-146.72 z"
   id="path303"
   style="fill:#0b755f;fill-rule:nonzero" />

    <path
   class="fil19"
   d="m 15894.18,53481.96 c 666.22,-92.11 1330.85,-121.77 2000.15,-101.46 1374.52,40.59 2763.08,287.28 4209.29,629.22 1680.35,395.07 2561.75,23.47 3543.16,-391.86 552.29,-232.7 1137.38,-479.39 1906.44,-615.21 -21.81,56.22 -45.17,112.46 -68.61,167.06 -711.41,135.87 -1259.05,366.97 -1780.1,587.1 -1004.73,424.71 -1908.05,805.69 -3635.19,399.74 -1438.5,-338.83 -2817.65,-585.58 -4179.65,-626.17 -642.8,-18.67 -1280.91,9.35 -1922.13,93.67 -24.97,-46.78 -48.36,-93.67 -73.36,-142.09 z"
   id="path304"
   style="fill:#0b755f;fill-rule:nonzero" />

    <path
   class="fil19"
   d="m 16608.76,54607.78 c 488.34,-43.73 978.24,-56.21 1468.1,-42.09 1374.52,40.59 2763.05,288.84 4209.35,629.22 1680.24,396.6 2561.76,23.42 3543.04,-390.33 291.77,-123.41 591.36,-249.88 922.11,-362.33 -56.21,75.03 -112.34,148.41 -171.6,221.74 -243.38,89.04 -469.59,185.85 -691.13,279.54 -1006.37,424.71 -1909.72,805.72 -3636.74,398.22 -1438.5,-338.87 -2817.65,-585.58 -4179.69,-624.68 -449.33,-13.98 -898.66,-4.63 -1347.99,31.3 -39.01,-45.28 -76.44,-93.7 -115.45,-140.59 z"
   id="path305"
   style="fill:#0b755f;fill-rule:nonzero" />

    <path
   class="fil19"
   d="m 17777.33,55746.2 c 160.7,0 321.37,1.49 482.1,6.18 1376.04,39.07 2763.05,287.28 4209.26,629.31 630.34,148.3 1146.7,187.34 1599.22,159.23 -138.92,57.77 -279.28,110.85 -422.77,157.71 -357.36,-10.93 -755.2,-64.01 -1210.78,-170.19 -1438.44,-340.39 -2817.62,-587.08 -4179.62,-626.17 -88.96,-3.14 -179.43,-4.69 -268.35,-4.69 -70.2,-49.89 -140.42,-99.94 -209.06,-151.38 z"
   id="path306"
   style="fill:#0b755f;fill-rule:nonzero" />

    <path
   class="fil19"
   d="m 15354.4,49364.42 c 636.53,-82.83 1271.53,-109.29 1909.64,-90.62 1372.91,40.67 2758.33,287.28 4203.05,627.66 1691.2,399.77 2577.38,25.09 3566.49,-391.82 720.76,-304.57 1496.24,-632.39 2669.44,-704.22 7.82,24.94 15.65,49.91 21.83,74.88 -1173.2,68.7 -1943.9,395.11 -2663.16,698.04 -1000.05,421.6 -1897.1,801.02 -3611.75,396.62 -1441.6,-338.86 -2822.31,-585.57 -4187.48,-626.17 -642.8,-18.78 -1282.43,9.33 -1923.68,93.65 4.66,-26.5 9.35,-51.56 15.62,-78.02 z"
   id="path307"
   style="fill:#0b755f;fill-rule:nonzero" />

    <path
   class="fil19"
   d="m 15226.47,50577.72 c 772.26,-131.21 1541.44,-175 2315.27,-151.52 1371.36,39.03 2758.33,287.28 4203.02,627.66 1691.2,398.27 2577.38,24.97 3564.97,-393.46 713.05,-299.77 1479.09,-623.04 2628.84,-699.56 3.17,25 6.3,50.06 7.83,75.03 -1142.05,76.49 -1900.26,396.6 -2607.04,694.78 -1000.05,421.57 -1897.1,801.05 -3611.75,396.6 -1441.57,-338.75 -2822.31,-587.13 -4187.45,-626.08 -773.84,-23.45 -1542.99,21.83 -2313.69,151.43 0,-24.97 0,-49.97 0,-74.88 z"
   id="path308"
   style="fill:#0b755f;fill-rule:nonzero" />

    <path
   class="fil19"
   d="m 15335.71,51809.63 c 814.4,-146.71 1625.66,-196.74 2443.2,-173.33 1371.35,40.63 2758.33,288.87 4203.02,629.37 1691.2,398.09 2577.4,23.3 3564.99,-393.58 672.46,-284.17 1391.69,-587.13 2436.93,-685.46 -1.52,26.58 -4.69,51.55 -6.21,76.52 -1028.15,98.36 -1738.07,398.15 -2401.09,677.64 -1000.07,423.18 -1897.12,801.05 -3611.77,398.21 -1441.58,-340.39 -2822.34,-587.08 -4187.45,-627.67 -811.3,-23.47 -1617.87,26.47 -2427.61,173.33 -4.67,-25.06 -9.35,-50.06 -14.01,-75.03 z"
   id="path309"
   style="fill:#0b755f;fill-rule:nonzero" />

    <path
   class="fil19"
   d="m 15660.18,52949.55 c 752.01,-121.78 1500.87,-162.46 2252.88,-140.54 1372.93,40.6 2758.38,287.31 4203.04,627.7 1691.2,399.76 2577.41,24.97 3566.49,-391.94 591.39,-249.74 1220.09,-515.24 2076.67,-641.82 -7.83,26.61 -15.65,53.19 -24.97,79.69 -830.08,128.07 -1443.16,387.28 -2023.59,630.86 -1000.04,423.18 -1897.1,801.02 -3611.74,396.6 -1440.03,-338.78 -2822.32,-585.58 -4187.46,-626.2 -742.65,-21.81 -1482.14,18.78 -2223.21,137.42 -9.41,-23.33 -18.76,-46.8 -28.11,-71.77 z"
   id="path310"
   style="fill:#0b755f;fill-rule:nonzero" />

    <path
   class="fil19"
   d="m 16229.65,54075.37 c 616.27,-78.14 1230.94,-101.5 1848.79,-82.83 1371.36,39.1 2756.78,287.34 4201.47,627.73 1691.2,398.26 2579.02,23.41 3566.6,-393.47 413.35,-174.85 845.59,-357.53 1360.43,-493.43 -17.15,31.27 -34.38,60.87 -51.56,92.17 -480.43,132.71 -887.7,306.07 -1279.24,471.6 -1000.07,421.57 -1898.73,800.97 -3613.38,396.51 -1440.02,-340.38 -2820.76,-587.01 -4187.45,-626.08 -600.68,-18.76 -1199.78,4.66 -1800.41,78.05 -15.62,-23.45 -29.66,-46.89 -45.25,-70.25 z"
   id="path311"
   style="fill:#0b755f;fill-rule:nonzero" />

    <path
   class="fil19"
   d="m 17189.13,55246.44 c 335.44,-17.12 670.88,-20.29 1006.31,-9.32 1371.39,39.06 2758.37,287.3 4203.11,627.69 1499.29,352.87 2366.71,98.36 3232.6,-254.51 -70.25,56.21 -142,112.42 -213.74,165.5 -803.47,304.46 -1653.75,488.77 -3036.01,162.4 -1441.66,-340.39 -2822.37,-587.1 -4187.51,-626.17 -310.49,-9.32 -619.41,-7.83 -928.29,6.3 -24.97,-23.48 -51.5,-48.42 -76.47,-71.89 z"
   id="path312"
   style="fill:#0b755f;fill-rule:nonzero" />

    <path
   class="fil19"
   d="m 18835.08,56392.54 c 1190.43,70.33 2394.84,288.97 3641.4,579.3 -73.27,9.44 -148.15,18.76 -221.54,25.06 -1102.98,-249.85 -2173.25,-438.8 -3229.47,-516.85 -63.98,-28.11 -127.94,-57.77 -190.39,-87.51 z"
   id="path313"
   style="fill:#0b755f;fill-rule:nonzero" />

    <path
   class="fil19"
   d="m 15775.6,48057.44 c 430.63,-32.79 861.24,-40.59 1293.45,-28.1 1371.36,40.59 2758.33,287.31 4202.99,627.69 1691.29,399.74 2577.38,24.97 3564.97,-391.94 655.31,-276.34 1352.74,-571.48 2352.78,-677.63 14.01,24.97 26.5,48.41 40.51,73.36 -1009.4,101.49 -1708.35,396.62 -2363.66,672.97 -1000.07,423.21 -1897.13,801.05 -3611.77,396.63 -1441.53,-338.77 -2822.29,-585.61 -4187.4,-626.08 -443.12,-12.49 -884.63,-3.17 -1326.13,31.15 10.9,-26.49 21.83,-53.08 34.26,-78.05 z"
   id="path314"
   style="fill:#0b755f;fill-rule:nonzero" />

   </g>

  </g>
      <path
         class="fil0"
         d="m 86.21816,69.61536 c 35.3003,0 63.9169,28.6166 63.9169,63.9169 0,35.3003 -28.6166,63.9169 -63.9169,63.9169 -35.3003,0 -63.9169,-28.6166 -63.9169,-63.9169 0,-35.3003 28.6166,-63.9169 63.9169,-63.9169 z"
         id="path315"
         style="clip-rule:evenodd;fill:none;fill-rule:evenodd;stroke-width:0.01;image-rendering:optimizeQuality;shape-rendering:geometricPrecision;text-rendering:geometricPrecision" />
      <path
         class="fil4"
         d="m 63.82796,98.99596 2.6314,-4.7365 2.6121,4.7365 z m 10.5641,9.6656 h 6.7518 l -14.6845,-27.0585 -14.7038,27.0585 h 6.7518 l 2.6121,-4.7365 h 10.6604 z m 23.0408,0 h -15.3456 v -26.6606 l 6.5464,-0.0192 v 20.5891 h 10.5449 z m 18.0347,0 h -15.3456 v -26.6606 l 6.5464,-0.0192 v 20.5891 h 10.5449 z"
         id="path316"
         style="clip-rule:evenodd;fill:#ffffff;fill-rule:nonzero;stroke-width:0.01;image-rendering:optimizeQuality;shape-rendering:geometricPrecision;text-rendering:geometricPrecision" />
      <g
         id="_1777285752848"
         style="clip-rule:evenodd;fill-rule:evenodd;image-rendering:optimizeQuality;shape-rendering:geometricPrecision;text-rendering:geometricPrecision"
         transform="matrix(0.01,0,0,0.01,-129.70804,-373.12274)">
   <path
   class="fil20"
   d="m 21189.72,50613.96 c -11.9,6.54 -14.53,21.35 -6.65,31.48 6.36,10.27 21.21,12.98 31.5,6.59 10.24,-6.33 12.99,-21.13 6.56,-31.5 -7.83,-10.02 -21.35,-14.53 -31.41,-6.57 z"
   id="path317"
   style="fill:#fefefe" />

   <path
   class="fil20"
   d="m 23308.43,51552.19 c 17.27,-36.24 34.45,-72.52 51.36,-110.39 6.53,-53.95 13.37,-106.46 21.44,-160.64 -95.27,7.45 -185.49,-16.35 -260.32,-66.42 12.02,27.07 26.99,52.28 41.84,77.47 50.89,84.21 99.15,171.94 145.68,259.98 z m -2896.42,-1537.65 c -25.38,2.02 -49.02,5.48 -72.59,8.93 -663.72,97.1 -1321.92,220.8 -1974.91,369.29 -41.64,572.08 -73.54,1144.26 -95.64,1718.28 -11.49,305.54 -20.98,614.04 -20.99,921.1 28.52,-68.48 57.27,-135.36 84.46,-202.05 29.54,-237.44 86.94,-470.91 165.06,-694.61 147.33,-420.2 375.84,-834.77 661.26,-1178.85 234.84,-283.44 572.5,-588.57 951.57,-644.03 33.04,-4.83 67.88,-8.24 101.57,-8.37 6.71,-20.32 13.61,-38.99 20.5,-57.65 33.85,-98.26 99.22,-178.47 179.71,-232.04 z M 25916.54,52436 c 51.49,-108.87 103.08,-217.67 151.24,-327.65 61.16,-581.3 152.84,-1228.2 365.65,-1772.17 112.32,-286.58 460.74,-397.04 715.67,-225.32 104.97,69.8 206.33,148.31 297.98,236.18 178.4,176.48 319,401.92 281.74,662.95 -43.4,318.29 -88.6,635.19 -133.62,953.66 50.82,-15.46 104.45,-21.64 161.33,-17.11 122.13,11.1 227.15,69.73 299.61,170 142.35,193.08 92.13,431.86 -4.07,630.8 -152.94,316.64 -422.69,635.85 -658.71,900.27 -14.31,143.57 -26.86,288.6 -36.48,431.39 -28.74,439.94 -54.42,879.49 -108.05,1314.92 -103.87,827.16 -353.79,2127.41 -1358.79,2274.44 -228.03,33.37 -456.12,0.8 -656.41,-116.17 -583.1,-340.74 -604.32,-1133.48 -482.95,-1720.36 101.66,-490.83 307.31,-963.08 557.03,-1396.73 -217.07,-56.66 -402.98,-196.64 -540.33,-377.59 -21.88,-28.88 -42.46,-59.64 -61.66,-92.23 -94.73,110.31 -212.44,195.04 -360.28,216.67 -105.36,15.41 -211.97,11.78 -315.46,-14.87 -281.91,-71.29 -471.63,-270.29 -596.19,-517.33 -218.82,282.82 -503.9,519.11 -868.85,572.51 -369.53,54.06 -773.4,27.87 -1079.9,-200.55 -7.88,12.35 -15.47,26.28 -24.84,38.94 -120.54,186.42 -306.04,368 -535.67,401.6 -243.75,35.66 -478.01,-28.2 -675.88,-172.96 v 0 c -138.46,195.56 -328.41,390.62 -567.46,425.6 -73.9,10.81 -150.54,13.99 -225.23,8.84 -272.27,-16.51 -506.7,-125.29 -692.78,-310.3 -178.82,359.02 -459.1,760.1 -869.58,820.16 -311.41,45.56 -559.33,-78.9 -732.23,-338.24 -216.49,-326.87 -307.83,-863.37 -364.25,-1248.97 -70.93,-484.86 -78.06,-983.86 -64.48,-1472.98 12.98,-460.14 46.71,-921.64 92.05,-1380.12 -318.42,96.44 -635.2,203.92 -944.37,331.06 -133.31,54.93 -474.23,206.17 -595.47,310.64 -18.1,95.99 -68.39,180.45 -144.17,244.62 -112.95,95.35 -259.86,123.18 -399.82,77.84 -313.95,-103.6 -627.75,-348.73 -678.42,-695.06 -54.81,-374.63 229.28,-650.91 515.01,-839.02 319.12,-212.3 694.68,-368.52 1052.58,-502.9 999.91,-379.41 2055.05,-644.77 3098.44,-869.73 593.48,-127.05 1192.39,-238.73 1792.74,-329.79 139.98,-20.48 281.87,-5.92 414.21,42.22 461.59,168.85 986.08,492.45 1063.69,1022.94 20.04,136.97 -23.74,265.54 -122.08,361.95 -98.58,94.78 -229.3,134.82 -364.51,111.23 -183.07,-32.66 -388.62,-54.13 -592.3,-62.87 186.47,99.67 338.88,241.42 477.92,401.15 98.42,112.68 142.96,263.63 124.65,412.61 -47.22,368.71 -89.83,736.68 -125.67,1106.86 86.88,-109.18 221.55,-165.79 365.04,-151.42 69.93,5.85 140.86,29.22 202.08,63.63 6.82,2.23 12.2,6.24 19.16,10.05 -142.09,-400.43 -310.44,-782.54 -288.02,-1232.87 21.64,-456.47 313.39,-910.77 781.55,-1004.97 340.06,-69.07 647.84,80.46 865.85,329.88 81.66,-56.97 169.15,-106.68 257.34,-151.75 31.04,-194.21 61.86,-390.08 92.89,-584.37 38,-233.88 237.31,-409.34 472.78,-413.29 312.48,-5.48 582.24,234.8 768.25,463.31 46.96,57.38 80.95,124.71 99.56,197.64 28.87,10.2 58.1,23.58 84.51,39.06 258.99,145.41 596.98,369.22 643.5,687.19 9.23,63.04 10.54,127.1 -4.57,188.85 195.44,138.62 363.55,332.64 368.52,585.94 1.94,166.93 -42.13,359.91 -69.22,526.26 -41.84,263.3 -83.77,525.15 -118.92,790.67 -7.57,57.45 -15.05,116.42 -20.88,175.16 z"
   id="path318"
   style="fill:#fefefe" />

   <path
   class="fil21"
   d="m 25803.4,55912.54 c -40.24,120.02 -75.73,239.4 -103.27,359.13 -5.1,20.03 -11.91,50 -18.13,84.65 48.3,-142.05 87.31,-292.49 121.4,-443.78 z m -5845.17,-4069.57 c -61.27,163.32 -108.09,337.36 -144.17,497.08 -40.96,181.24 -73.35,366.04 -94.28,552.38 49.98,-108.65 94.58,-209.97 123.09,-278.5 28.58,-254.99 67.9,-513.21 115.36,-770.96 z m 3046.09,-942.43 c -36.44,-7.52 -70.46,-20.2 -103.56,-37.93 9.99,35.51 17.76,66.57 24.41,89.74 36.62,129.65 89.45,271.46 159.38,386.61 72.04,119.68 151.09,264.13 221.73,417.78 50.27,-95.77 98.42,-194.47 140.8,-289.09 14.05,-101.73 26.49,-203.23 40.54,-304.99 -33.22,14.49 -68.72,24.51 -108.25,28.69 -115.72,10.42 -220.66,-36.91 -290.43,-129.55 -37.69,-49.08 -64.81,-103.05 -84.62,-161.26 z m -789.35,1401.77 c 4.84,33.04 6.98,69.72 4.26,105.43 -4.49,79.42 -25.08,169.31 -42.59,247.44 -13.26,63.05 -26.5,126 -38.22,188.86 74.92,-125.1 120.89,-271.69 99.46,-418.15 -6.2,-42.43 -13.73,-83.12 -22.91,-123.58 z m -1936.99,-1908.08 c 13.36,-40.5 25.35,-79.25 38.96,-118.24 76.37,-213.78 325.09,-314.45 529.29,-214.11 191.89,92.52 344.26,234.19 483.56,395.53 81.06,92.62 118.78,219.01 103.09,341.8 -59.12,463.7 -111.46,929.6 -154.31,1394.12 -5.64,60.25 -9.94,118.76 -15.57,179.06 44,-83.54 86.41,-166.97 125.71,-249.85 10.7,-25.71 22.93,-51.64 33.65,-77.32 59.75,-129.36 188.61,-204.44 330.44,-189.88 58.66,5.96 117.97,26.23 170.19,53.93 131.7,66.01 231.17,175.19 273.53,310.46 -131.88,-538.63 -438.59,-1032.34 -410.51,-1608.76 19.71,-414.54 282.8,-834.14 708.75,-920.48 343.24,-69.56 635.43,104.76 832.58,365.26 109.61,-85.12 232.54,-156.18 355.7,-214.34 31.92,-210.51 65.34,-421.18 100.34,-632.05 30.18,-189.37 192.16,-333.66 384.61,-336.11 280.26,-5.57 529.27,224.89 695.67,428.87 49.19,61.88 80.72,134.49 90.12,210.22 41.92,11.64 82.9,28.13 121.18,48.21 231.04,130.15 555.7,339.95 596.92,621.69 13.13,89.73 3.98,158.58 -22.14,210.65 3.85,4.27 9.02,6.77 14.18,9.25 186.77,123.77 367.27,303.23 370.3,543.88 1.91,144.42 -43.21,363.29 -66.72,509.75 -43.36,263.63 -85.16,527.04 -120.22,792.55 -13.12,108.11 -47.22,380.02 -59.83,623.01 88.5,-152.88 169.53,-312.57 203.84,-385.19 58.53,-116.21 111.8,-234.99 165.19,-353.8 59.13,-572.94 155.06,-1234.95 360.43,-1763.35 91.34,-232.09 375.41,-321.81 582,-183.28 263.49,175.38 589.53,460.42 541.31,811.56 -53.58,380.89 -108.93,760.38 -159.24,1140.71 l 11.2,-11.26 c 71.93,-68.41 159.01,-98.83 255.25,-88.89 97.55,8.33 178.05,52.75 236.26,132.77 118.57,162.72 67.15,371.14 -14.47,537.47 -145.3,302.66 -428.7,638.3 -663.44,900.96 -14.23,154.84 -28.58,309.64 -39.73,464.03 -29,438.35 -53.59,874.45 -107.12,1309.9 -97.12,774.75 -332.06,2056.7 -1282.02,2195.68 -207.56,30.36 -414.26,1.18 -596.97,-105.53 -546.25,-318.85 -551.54,-1080.1 -439.97,-1623.8 105.25,-510.65 330.27,-1014.67 613.95,-1480.59 -245.86,-21.91 -462.55,-163.85 -614.07,-365.15 -46.13,-62.45 -86.58,-130.41 -122.79,-202.33 -93.78,139.1 -216.42,266.44 -384.74,291.06 -94.42,13.82 -188.12,9.78 -279.95,-13.78 -305.31,-77.49 -491,-325.27 -598.27,-608.64 -231.45,339.44 -526.4,607.66 -902.29,662.65 -380.58,55.68 -799.92,22.12 -1088.41,-247.56 -25.95,42.3 -51.84,84.81 -78.02,125.49 -106.21,163.52 -272.62,332.6 -473.97,362.06 -220.15,32.21 -431.02,-25.42 -610.85,-156.61 -25.24,-18.88 -48.94,-37.9 -72.81,-58.54 -147.78,230.63 -336.38,435.12 -559.69,467.79 -67.63,9.89 -137.98,12.16 -206.12,7.58 -312.73,-18.49 -551.33,-166.91 -722.48,-381.46 -196.53,435.55 -476.81,836.67 -858.98,892.58 -275.22,40.26 -490.28,-68.09 -643.04,-299.74 -206.13,-310.73 -297.67,-848.78 -350.65,-1210.85 -69.55,-475.42 -77.16,-977.52 -63.74,-1457.01 14.85,-502.22 51.78,-1007.63 105.52,-1507.48 -366.71,106.73 -732.89,227.81 -1081.32,372.01 -124.33,50.38 -534.91,231.04 -649.08,350.65 -6.93,84.64 -47.12,161.22 -115.7,219.48 -88.75,74.09 -202.63,97.24 -312.47,60.2 -280.2,-92.42 -572.52,-311.75 -617.89,-621.85 -49.04,-335.26 222.96,-584.15 474.83,-751.21 309.09,-204.38 690.66,-363.02 1036.17,-494.02 981.74,-371.99 2058.45,-643.61 3083.21,-864.27 593.46,-127.05 1189.22,-238.35 1788.01,-329.1 124.24,-18.17 251.32,-6.25 370.16,37.5 426.1,156.27 932.94,458.4 1005.01,951.04 15.89,108.64 -17.7,208.43 -96.57,284.25 -77.35,75.68 -177.26,106.29 -284.52,86.65 -366.2,-65.33 -835.67,-89.98 -1202.12,-36.37 -685.73,100.32 -1372,229.7 -2048.1,384.92 -42.89,596.28 -77.68,1193.06 -99.87,1787.94 -16.01,439.68 -28.2,883.59 -17,1322.52 0.91,6.23 0.3,12.81 1.46,20.7 89.88,-198.11 174.83,-396.98 257.96,-597.36 26.87,-233.82 84.51,-465.66 162.83,-687.79 142.69,-408.35 367.41,-815.86 644.8,-1149.04 219.82,-265.28 541.12,-561.53 894.99,-613.3 51.88,-7.59 104.48,-10.48 154.62,-8.1 z"
   id="path319"
   style="fill:#9b5439" />

   <path
   class="fil22"
   d="m 26153,54766.43 c -103.4,171.14 -194.59,350.04 -272.57,519 -152.66,329.48 -296.54,707.39 -364.52,1066.25 -23.02,117.58 -42.75,257.06 -30.18,375.81 3.08,31.75 16.36,111.8 45.19,133.29 5.2,2.53 11.96,4.62 18.46,5.36 4.93,0.87 8.09,0.41 12.82,-0.28 94.31,-13.8 208.54,-276.55 237.71,-351.55 108.32,-281.05 176.89,-603.03 229.98,-898.57 50.48,-280.76 90.86,-564.82 123.11,-849.31 z m -5888.55,-3619.37 c -143.7,49.96 -255.97,215.92 -323.2,338.28 -136.06,244.97 -226.93,546.1 -288.26,818.74 -62.63,285.62 -105.68,584.64 -120.81,876.23 -4.07,60.01 -8.91,224.8 0.76,345.54 36.06,-39.01 68.29,-82.33 81.48,-101.88 102.69,-143.67 187.04,-313.6 260.25,-472.27 45.04,-98.24 86.74,-197.56 128.4,-296.84 30.53,-274.62 75.42,-549.74 125.53,-822.27 41.88,-229.65 87.19,-458.15 135.85,-685.53 z m 5940.93,2450.95 c 8.25,-9.24 14.98,-18.28 23.34,-27.53 0.85,-4.95 0.16,-9.65 0.99,-14.69 -9.12,14.19 -16.77,28.26 -24.33,42.22 z m -1163.34,-3164.46 c -117.09,12.33 -232.33,26.05 -348.77,43.08 -25.76,273.77 -51.3,549.35 -73.78,824.33 -31.11,369.43 -60.32,740.33 -78.4,1111.2 -1.47,11.38 -1.24,24.35 -2.8,35.75 33.72,-77.27 63.96,-155.69 96.15,-232.7 20.86,-54.57 42.06,-107.49 63.26,-160.45 52.36,-509.24 157.61,-1019.86 284.22,-1515.88 9.99,-41.66 32.09,-77.09 60.12,-105.33 z m -1905.77,293.36 c -8.93,4.53 -19.9,6.14 -30.72,9.26 -258.79,54 -271.25,-371.91 -396.75,-384.06 -22.35,45.07 -22.36,165.66 -21.54,204.11 7.07,146.92 39.27,301.37 80.7,441.61 41.89,143.4 99.72,297.33 176.33,425.96 112.39,186.14 252.66,453.42 337.66,715.94 75.53,-131.64 146.1,-264.16 213.75,-394.61 38.67,-76.4 77.01,-154.34 112.06,-233.44 31.7,-255.44 68.09,-511.69 104.74,-766.17 -93.75,50.62 -177.64,114.41 -215.98,192.3 -26.14,52.13 -74.31,84.89 -131.44,90.02 -58.57,5.43 -110.45,-19.18 -146.08,-65.51 -49.74,-65 -76.53,-149.5 -82.73,-235.41 z m -2736.94,-151.14 c 21.55,-83.52 44.64,-167.26 72.01,-243.57 42.94,-123.64 185.68,-179.95 303.26,-123.16 171.14,82.69 307.37,212.29 431.06,354.93 50.36,58.57 74.7,137.06 65.07,214 -58.87,465.17 -112.54,932.93 -154.95,1400.46 -25.37,277.09 -48.67,557.02 -59.39,835.19 -0.61,17.75 -1.23,35.52 -1.84,53.24 59.47,-98.66 118.7,-198.98 176.11,-300.6 107.48,-187.82 216.92,-383.88 306.11,-575.4 12.32,-25.97 23.07,-51.65 35.29,-77.49 28.98,-65.35 94.35,-102.2 164.51,-94.81 37.49,4.14 76.48,17.75 109.57,35.4 133.35,65.77 218.89,189.84 209.36,343.96 -3.99,71.32 -24.2,153.1 -38.17,222.62 -22.05,101.37 -42.83,200.88 -60.29,301.43 -11.71,62.85 -41.57,253.78 -36,357.47 31.63,-14.41 63.92,-35.07 80.08,-45.49 77.15,-54.74 148.38,-127.87 206.54,-202.35 137.87,-177.67 225.45,-402.69 192.28,-629.42 -43.99,-300.68 -159.96,-587.57 -260.9,-871.78 -105.16,-290.19 -204.61,-597.15 -189.54,-911.27 16.1,-340.02 225.73,-697.03 578.41,-767.85 312.06,-63.43 567.13,132.38 724.49,384.31 16.28,23.41 28.27,50.51 37.39,79.81 140.13,-162.01 352.57,-279.94 541.39,-362.22 37.16,-240.24 74.57,-478.75 113.49,-717.68 17.41,-111.86 112.55,-196.51 226.34,-198.64 219.39,-4.82 435.5,209.57 564.8,369.13 46.98,57.49 67.32,130.08 55.35,202.57 -2.17,17.97 -5.91,36.17 -8.07,54.17 72.56,-8.96 147.04,5.86 211.72,41.42 175.21,99.79 483.82,287.76 515.13,501.79 14.52,99.24 -53.55,171.91 -144.13,189.98 -12.33,3.35 -24.92,5.19 -37.51,7.03 84.41,39.17 166.67,84.92 244.8,136.32 138.78,92.11 295.32,228.48 297.58,408.16 0.63,59.39 -10.17,128.51 -19.16,187.71 -14.52,98.57 -30.81,195.8 -45.32,294.4 -43.14,265.15 -86.27,530.41 -121.07,797.47 -32.4,250.72 -62.1,509.13 -65.45,760.43 -0.89,59.7 0.18,254.13 28.2,346.42 63.18,-51.04 152.68,-175.07 180.41,-216.15 117.39,-174.74 218.97,-369.67 310.09,-559.78 61.87,-126.41 121.85,-254.21 178.44,-383.08 15.42,-158.18 35.78,-315.49 57.97,-471.52 57.59,-418.48 142.6,-880.99 295.44,-1274.84 52.52,-134.64 216.89,-186.08 337.96,-105.66 202.73,134.27 506.83,379.27 469.65,651.6 -34.24,249.42 -71.83,497.66 -107.85,745.71 -38.49,285.35 -76.86,572.4 -113.6,859.06 l 349.44,-334.1 c 35.16,-34.08 79.65,-48.62 128.42,-44.49 47.23,4.34 87.61,27.43 117.33,66.42 78.45,107.57 22.6,263.59 -29.21,370.84 -60.25,126.18 -145.26,247.92 -226.7,361.2 -138.02,187.41 -291.6,367.46 -447.67,541.43 -18.05,173.05 -32.71,347.21 -44.06,522.51 -29.74,433.66 -54.71,866.56 -108.72,1298.97 -84.63,684.38 -292.72,1930.38 -1142.01,2054.63 -169.83,24.84 -340.12,3.04 -491,-84.19 -209.1,-122.07 -324.25,-338.35 -378.78,-568.32 -65.56,-283.13 -40.99,-598.67 17.14,-882.1 128.85,-623.4 446.62,-1240.61 824.85,-1784.7 -66.11,53.04 -140.63,93 -219.22,104.5 -256.37,37.5 -484.85,-96.4 -634.61,-296.33 -105.82,-142.07 -177.96,-316.42 -224.04,-499.43 -30.77,64.04 -63.17,128.26 -96.18,187.74 -69.95,126.02 -187.03,313.6 -342.77,336.38 -72.33,10.58 -144.96,8.35 -216.74,-10.09 -368.6,-92.49 -522.45,-518.45 -577.68,-873.71 -231.57,448.61 -553.51,860.71 -986.09,923.99 -355.41,52 -767.36,25.45 -1014.76,-271.19 -29.1,-34.28 -53.51,-69.3 -75.02,-106.38 -58.96,113.1 -123.04,223.75 -189.67,328.41 -78.96,119.28 -211.52,267.29 -360.96,289.16 -177.69,25.99 -345.36,-21.9 -489.11,-126.14 -79.14,-57.59 -145.44,-126.68 -201.46,-202.08 -138.69,259.78 -335.97,547.48 -553.01,579.23 -56.64,8.29 -115.51,12.1 -172.39,7.6 -221.93,-12.62 -420.09,-115.38 -569.28,-278.52 -80.54,-89.49 -145.44,-192.53 -193.69,-302.83 -20.94,54.49 -41.84,109.06 -63.06,162.02 -135.04,328.41 -394.15,874.42 -788.91,932.17 -212.35,31.07 -365.48,-49.43 -483.22,-228.39 -189.36,-284.19 -276.43,-813.32 -324.79,-1143.84 -68.16,-465.93 -74.4,-958.69 -61.17,-1428.44 16.4,-579.55 64.48,-1162.28 131.31,-1737.89 -232.93,66.16 -465.31,135.58 -695.02,212.56 -251.46,81.81 -503.16,173.28 -746.49,278.05 -164.52,72.26 -343.4,156.32 -490.76,258.24 -33.39,24.23 -140.33,105.81 -151.87,147.6 6.73,56.93 -14.69,108.35 -57.47,145.12 -44.37,37.09 -100.56,48.45 -156.15,30.87 -219.42,-72.37 -471.36,-246.1 -507.06,-490.11 -37.98,-259.65 210.14,-463.25 401.91,-591.01 298.96,-196.5 671.59,-350.6 1004.98,-476.6 462.7,-175.43 942.32,-322.73 1419.37,-455.23 541.66,-151.65 1091.05,-283.45 1640.72,-402.43 588.76,-126.36 1182.93,-237.43 1778.58,-327.8 97.5,-14.27 195.33,-4.44 288.72,30.18 363.33,133.37 837.22,396.75 899.17,820.23 8.07,55.13 -8.9,104.2 -48.28,142.16 -39.47,37.95 -88.68,53.11 -143.06,43.39 -110.45,-19.15 -226.55,-32.8 -338.92,-43.61 -241.08,-22.64 -489.72,-31.29 -731.35,-13.71 -61.78,5.9 -123.58,11.71 -183.35,20.46 -731.35,106.99 -1459.41,247.37 -2178.63,415.18 -46.56,637.04 -84.77,1276.21 -108.63,1914.73 -17.74,460.84 -31.14,929.08 -14.91,1391.29 1.39,86.65 14.3,372.53 45.11,561.04 17.9,-31.56 33.05,-59.58 41.75,-76.85 78.64,-143.41 148.22,-293.46 214.95,-441.5 97.48,-211.98 189.84,-426.45 278.73,-642.09 24.4,-228.64 81.17,-455.55 156.81,-674.06 137.36,-389.92 351.55,-781.37 615.05,-1099.73 191.39,-228.98 486.01,-510 794.29,-555.1 84.94,-12.43 170.59,-8.88 252.24,11.26 z"
   id="path320"
   style="fill:#be623e" />

   <path
   class="fil23"
   d="m 27719.62,52363.44 -679.34,649.29 c 105.96,-933.54 250.77,-1887.24 275.18,-2061.17 25.6,-187.01 -264.7,-403.53 -398.33,-493.28 -33.78,-22.31 -79.78,-7.55 -93.66,29.82 -179.98,460.4 -284.86,1126.98 -346.2,1729.22 -251.81,573.85 -639.54,1349.2 -878.7,1295.79 -376.78,-83.15 111.17,-2336.35 108.69,-2562.65 -3.33,-176.41 -331.74,-345.43 -479.88,-413.72 -34.4,-15.85 -77.96,4.92 -86.78,43.23 -152.17,596.27 -239.87,1094.58 -283.14,1512.53 -172.51,446.49 -389.23,963.78 -461.56,974.36 -94.31,13.8 41.61,-1681.4 147.81,-2733.96 430.09,-69.41 806.79,-85.95 804.26,-103.27 -19.8,-135.35 -305.75,-310.55 -433.44,-381.95 -38.47,-21.65 -82.77,-28.02 -124.78,-18.74 -68.55,14.95 -135.27,31.08 -197.27,46.63 14.63,-130.78 27.38,-230.75 37.68,-291.74 4.21,-26.33 -3.13,-54.2 -20.47,-74.11 -70.72,-87.79 -270.7,-312.57 -435.64,-309.32 -33.75,0.11 -61.71,28.25 -68.14,61.48 -18.46,115.14 -67.35,418.13 -127.77,806.51 -940.11,381.86 -628.91,796.23 -628.91,796.23 87.05,-173.58 305.37,-295.6 567.18,-383.75 -50.76,345.05 -104.72,722.77 -149.51,1075.04 -208.36,475.81 -570.52,1041.7 -570.52,1041.7 15.55,-245.03 -137.97,-667.96 -392.25,-1088.94 -254.63,-422.54 -413.41,-1277.24 -133.38,-1318.21 279.92,-40.95 320.53,401.64 401.68,384.97 81.06,-16.69 93.75,-171.33 41.57,-253.66 -386.54,-610.68 -973.33,-251.57 -1001.11,305.62 -26.14,556.92 357.1,1123.03 448.99,1751.1 91.89,628.1 -554.55,1161.55 -736.71,1069.3 -180.41,-90.97 56.83,-895.81 66.37,-1061.19 6.81,-107.16 -68.61,-162.06 -122.03,-186.45 -24.77,-15.6 -49.33,-18.49 -49.33,-18.49 -10.64,25.72 -21.53,49.89 -32.55,73.96 -188.03,405.36 -761.25,1373.52 -778.17,1302 -98.12,-418.15 154.65,-2456.82 197.72,-2799.18 5.11,-31.28 -4.45,-63.62 -25.69,-87.89 -110.13,-126.96 -231.28,-241.11 -380.1,-314.22 -29.49,-14.91 -64.28,-0.22 -75.88,30.42 -27.37,76.34 -66.91,223.6 -113.21,412.1 -79.53,-49.39 -193.67,-93.83 -341.49,-72.2 -531.62,77.78 -1325.78,1171.48 -1429.65,2207.61 -144.43,352.36 -581.21,1385.72 -721.17,1406.2 -355.46,52 -116.27,-3418.81 -50.48,-4286.99 742.12,-176.08 1541.82,-331.76 2309.33,-444.05 602.35,-88.12 1306.63,37.2 1306.63,37.2 -55.5,-379.37 -567.7,-608.23 -795,-690.77 -66.19,-24.17 -136.35,-31.56 -207.11,-21.21 -2668.74,403.3 -6206.5,1388.83 -6107.25,2067.22 35,239.2 395.99,356.83 395.99,356.83 -46.05,-314.8 1020.16,-756.91 2439.1,-1138.17 -98.2,778.04 -253.56,2318.5 -100.41,3365.34 175.26,1197.92 414.64,1264.17 622.26,1233.8 435.65,-63.74 760.2,-1040.57 901.2,-1548.33 2.87,52.63 7.11,103.47 14.47,153.78 98.58,673.78 494.19,929.42 871.67,874.19 169.85,-24.85 399.91,-384.93 568.9,-789.08 67.27,207.29 181.52,351.3 305.45,440.9 135.02,99.27 265.42,112.27 369.22,97.08 61.33,-8.97 157.13,-79.24 246.1,-217.64 119.62,-181.55 254.27,-447.23 372.27,-705.7 13.19,496.55 337.9,783.44 1022.04,683.35 553.59,-80.99 945.32,-895.49 1192.03,-1647.1 -34.38,325.01 -50.82,586.25 -37.93,717.84 54.67,604.54 303.94,936.21 626.41,889.04 108.55,-15.88 306.63,-319.78 544.02,-1024.97 25.54,1063.83 453.09,1340.56 753.57,1296.6 281.45,-41.17 622.54,-751.9 850.32,-1314.21 -36.24,521.43 -40.98,906.34 -40.98,906.34 -1693.06,1998.61 -1528,3763.99 -562.32,3622.71 967.23,-141.5 1035.74,-2100.25 1110.52,-3202.86 12.16,-180.28 29.95,-377.35 49.98,-581.24 850.44,-939.63 729.63,-1106.92 729.63,-1106.92 z m -7556.31,332.22 c -182.52,454.41 -459.5,1031.95 -703.28,1067.61 -253.21,37.05 -22.13,-2665.76 828.76,-2790.25 73.89,-10.81 133.75,-8.25 183.21,0.6 -116.24,500.93 -250.77,1195.9 -308.69,1722.04 z m 5364.88,4332.73 c -578.73,-79.25 151.28,-2062.35 844.93,-2855.2 0,0 -198.88,2945.55 -844.93,2855.2 z"
   id="path321"
   style="fill:#ef9540;fill-rule:nonzero" />

   <path
   class="fil24"
   d="m 14692.1,51116.57 c 19.78,14.76 22.37,43.35 7.61,63.16 -16.58,18.51 -43.31,22.42 -63.38,6.13 -110.91,-88.27 -141.14,-185.22 -99.01,-292.63 39,-95.69 141.6,-195.96 303.97,-304.99 20.42,-14.28 48.5,-8.67 61.21,12.05 14.19,20.4 8.69,48.46 -11.73,62.73 -147.81,98.85 -239.41,186.25 -269.94,263.02 -27.21,66.69 -3.62,129.18 71.27,190.53 z"
   id="path322"
   style="fill:#fefefe;fill-rule:nonzero" />

   <path
   class="fil20"
   d="m 14735.18,51169.71 c 25.18,-3.68 47.02,14.04 50.48,37.67 3.68,25.18 -12.4,46.84 -37.57,50.53 -23.61,3.45 -45.23,-12.7 -48.91,-37.87 -3.46,-23.64 12.4,-46.87 36,-50.33 z"
   id="path323"
   style="fill:#fefefe" />

   <path
   class="fil24"
   d="m 17439.21,54367.61 c -6.4,-21.64 4.54,-45.69 25.89,-53.62 21.55,-6.38 45.62,4.5 53.58,25.9 39.74,117.92 85.93,202.81 138.68,256.23 30.01,29.38 61.8,48.84 95.29,58.34 33.32,8.01 68.15,4.57 108.12,-7.7 59.46,-21.59 126.79,-66.78 198.22,-138.34 17.04,-15.34 42.68,-15.87 59.58,0.89 15.14,15.58 15.88,42.73 -1.16,58.08 -81.33,81.06 -158.88,132.63 -230.74,157.57 -53.43,19.1 -106.03,22 -154.39,9.73 -48.41,-12.23 -94.14,-39.31 -135.64,-81.4 -60.44,-61.89 -112.92,-157.15 -157.43,-285.68 z"
   id="path324"
   style="fill:#fefefe;fill-rule:nonzero" />

   <path
   class="fil20"
   d="m 17437.96,54205.4 c 26.77,-3.91 52,14.91 55.91,41.59 3.91,26.77 -14.64,53.65 -41.41,57.57 -28.3,4.14 -53.8,-16.3 -57.72,-43.07 -3.9,-26.68 14.91,-51.95 43.22,-56.09 z"
   id="path325"
   style="fill:#fefefe" />

   <path
   class="fil24"
   d="m 25726,57227.81 c -25.15,3.68 -47.08,-14.03 -49.14,-39.44 -1.92,-23.86 15.79,-45.79 39.42,-49.25 134.54,-13.2 253.29,-57.94 357.56,-135.9 105.8,-78.19 198.78,-189.78 277.17,-334.7 11.12,-22.54 38.99,-29.87 59.91,-18.48 22.52,11.19 29.84,39.12 18.5,60.01 -84.67,157.08 -185.91,277.97 -301.61,365.63 -119.01,86.58 -252.82,138.36 -401.81,152.13 z"
   id="path326"
   style="fill:#fefefe;fill-rule:nonzero" />

   <path
   class="fil20"
   d="m 26442.88,56539.26 c 26.8,-3.92 52.03,14.9 56.18,43.24 3.91,26.76 -14.88,52 -41.67,55.92 -26.71,3.9 -51.92,-14.89 -55.83,-41.66 -4.15,-28.33 14.61,-53.59 41.32,-57.5 z"
   id="path327"
   style="fill:#fefefe" />

   <path
   class="fil24"
   d="m 22141.76,53788.92 c -24.09,0.33 -44.84,-20.81 -43.6,-45.1 1.01,-25.89 20.72,-44.86 45.06,-43.5 191.71,4.03 349.07,-18.99 473.14,-70.91 121.25,-49.76 211.38,-125.77 269.92,-230.82 12.87,-21.1 40.75,-28.41 61.75,-17.06 21.12,13 28.24,39.33 16.99,61.88 -70.57,121.2 -174.51,212.09 -314.01,269.35 -136.42,55.39 -306.03,81.74 -509.25,76.16 z"
   id="path328"
   style="fill:#fefefe;fill-rule:nonzero" />

   <path
   class="fil20"
   d="m 22987.41,53277.75 c 26.8,-3.92 51.99,14.85 55.92,41.68 3.9,26.68 -14.85,51.99 -41.64,55.91 -26.71,3.91 -50.42,-15.19 -54.32,-41.88 -3.93,-26.82 13.33,-51.8 40.04,-55.71 z"
   id="path329"
   style="fill:#fefefe" />

   <path
   class="fil24"
   d="m 22230.94,50698.54 c 0.62,25.71 -20.72,44.83 -44.81,45.21 -23.98,0.28 -44.49,-19.23 -44.9,-43.28 -0.09,-88.5 10.27,-171.98 34.05,-250.99 23.73,-79.13 57.95,-153.21 105.75,-221.31 13.24,-19.62 41.22,-25.38 61.08,-10.51 21.21,12.98 25.36,41.32 12.14,60.9 -42.52,60.88 -73.03,126.48 -93.46,195.41 -20.22,70.49 -30.07,145.9 -29.85,224.57 z"
   id="path330"
   style="fill:#fefefe;fill-rule:nonzero" />

   <path
   class="fil20"
   d="m 22182.19,50760.33 c 25.17,-3.69 46.98,14 50.68,39.26 3.44,23.55 -12.39,46.75 -37.56,50.44 -23.63,3.45 -47.07,-14 -50.52,-37.55 -3.69,-25.26 13.76,-48.7 37.4,-52.15 z"
   id="path331"
   style="fill:#fefefe" />

   <path
   class="fil24"
   d="m 26833.38,50555.81 c 9.35,-23.94 35.27,-34.1 58.85,-26.38 22.33,9.71 34.1,35.27 24.75,59.21 -34.12,85.32 -63.68,179.67 -89.01,281.45 -26.56,103.59 -48.66,216.1 -66.3,337.73 -4.31,24.8 -26.11,40.79 -50.55,37.94 -24.79,-4.43 -40.83,-26.23 -38.04,-50.66 18.71,-125.01 41.88,-240.97 68.3,-346.05 27.71,-107.02 58.35,-204.72 92,-293.24 z"
   id="path332"
   style="fill:#fefefe;fill-rule:nonzero" />

   <path
   class="fil20"
   d="m 26691.1,51251.88 c 28.25,-4.13 53.49,14.69 57.63,43.03 3.92,26.76 -14.87,52.03 -43.12,56.16 -26.79,3.92 -52,-14.91 -55.92,-41.67 -4.14,-28.34 14.62,-53.59 41.41,-57.52 z"
   id="path333"
   style="fill:#fefefe" />

  </g>
    </g>
  </g>
</svg>
